<svg width="213" height="159" viewBox="0 0 213 159" fill="none" xmlns="http://www.w3.org/2000/svg">
  <g stroke="#26339A" stroke-width="4.2" stroke-linecap="round" stroke-linejoin="round">
    <!-- roof cleaning brush / siren -->
    <path d="M70 57.5H113"/>
    <path d="M77 62.5H106"/>
    <path d="M91.5 47.5V57.5"/>
    <path d="M84 51.5H99"/>
    <path d="M77 57.5L79.8 62.5"/>
    <path d="M106 57.5L103.2 62.5"/>

    <!-- car roof and bonnet -->
    <path d="M57.5 97L70.5 75.5H125.5L138.5 97"/>
    <path d="M57.5 97H138.5"/>

    <!-- side mirrors -->
    <path d="M55.5 96.5C50.2 91.5 45.5 92.3 43.5 97.8"/>
    <path d="M140.5 96.5C145.8 91.5 150.5 92.3 152.5 97.8"/>

    <!-- front body -->
    <path d="M53.5 98.5C51.5 101 50.5 105.5 50.5 112.5V121.2C50.5 125 53.5 128 57.3 128H135.7C139.5 128 142.5 125 142.5 121.2V112.5C142.5 105.5 141.5 101 139.5 98.5"/>

    <!-- headlights and grille -->
    <path d="M57.5 108.2C58.2 104.7 60.3 103.2 64.5 103.2H78.5C84.5 103.2 88 106.5 88.5 112.2H63.5C59.5 112.2 57.4 110.8 57.5 108.2Z"/>
    <path d="M104.5 103.2H119.5C124.7 103.2 127.5 106.1 127.5 111.5C127.5 112 127.2 112.2 126.7 112.2H99.8C100.4 106.5 101.7 103.2 104.5 103.2Z"/>
    <path d="M88.5 105.5H101.5C105 105.5 107.5 108 107.5 111.5V112.5H83V111.5C83 108 85 105.5 88.5 105.5Z"/>

    <!-- lower bumper -->
    <path d="M59.5 119.8H133.5"/>

    <!-- wheels -->
    <path d="M57 127.5V137H66V128"/>
    <path d="M127 128V137H136V127.5"/>
  </g>

  <!-- sparkle icons -->
  <g fill="#26339A">
    <path d="M136 21.5L140.1 31L149.5 35L140.1 39L136 48.5L131.9 39L122.5 35L131.9 31L136 21.5Z"/>
    <path d="M158.5 52L163 62.5L173.5 67L163 71.5L158.5 82L154 71.5L143.5 67L154 62.5L158.5 52Z"/>
    <path d="M35.5 96L37.8 101.2L43 103.5L37.8 105.8L35.5 111L33.2 105.8L28 103.5L33.2 101.2L35.5 96Z"/>
  </g>
</svg>