<svg width="70" height="53" viewBox="0 0 70 53" fill="none" xmlns="http://www.w3.org/2000/svg">
  <g stroke="#26339A" stroke-width="1.85" stroke-linecap="round" stroke-linejoin="round">
    <path d="M24.2 17V21.7H18.2C17.2 21.7 16.4 22.5 16.4 23.5V38.2C16.4 39.2 17.2 40 18.2 40H40.1C42 40 43.8 39.1 45 37.6L57.6 22.2C55.3 21 52.6 21.4 50.8 23.3L45.3 28.9H43.1V25.5C43.1 23.4 41.4 21.7 39.3 21.7H28.6V17"></path>
    <path d="M18.6 21.7H15.7C13.8 21.7 12.3 20.2 12.3 18.7C12.3 17.1 13.8 15.8 15.7 15.8H19.2"></path>
    <path d="M20.3 12.4H32.2C33 12.4 33.7 13.1 33.7 13.9V15.5C33.7 16.3 33 17 32.2 17H28.6"></path>
    <path d="M24.2 17H20.3C19.5 17 18.8 16.3 18.8 15.5V13.9C18.8 13.1 19.5 12.4 20.3 12.4"></path>
    <path d="M24.4 30.4H37.2"></path>
  </g>
</svg>